<svg width="26" height="26" viewBox="0 0 26 26" fill="none" xmlns="http://www.w3.org/2000/svg">
<path d="M23.6225 10.8783H22.7498V10.8333H12.9998V15.1667H19.1223C18.2291 17.6892 15.829 19.5 12.9998 19.5C9.41021 19.5 6.49984 16.5896 6.49984 13C6.49984 9.41038 9.41021 6.5 12.9998 6.5C14.6568 6.5 16.1643 7.12509 17.312 8.14613L20.3763 5.08192C18.4414 3.27871 15.8533 2.16667 12.9998 2.16667C7.01713 2.16667 2.1665 7.0173 2.1665 13C2.1665 18.9827 7.01713 23.8333 12.9998 23.8333C18.9825 23.8333 23.8332 18.9827 23.8332 13C23.8332 12.2736 23.7584 11.5646 23.6225 10.8783Z" fill="#FFC107"/>
<path d="M3.41553 7.95763L6.97482 10.5679C7.9379 8.18351 10.2703 6.50001 12.9998 6.50001C14.6567 6.50001 16.1642 7.12509 17.312 8.14613L20.3762 5.08192C18.4414 3.27871 15.8533 2.16667 12.9998 2.16667C8.83869 2.16667 5.23011 4.51588 3.41553 7.95763Z" fill="#FF3D00"/>
<path d="M12.9998 23.8333C15.7981 23.8333 18.3407 22.7625 20.2631 21.021L16.9101 18.1838C15.7859 19.0387 14.4122 19.5011 12.9998 19.5C10.1821 19.5 7.78955 17.7033 6.88822 15.1959L3.35547 17.9178C5.14839 21.4262 8.78947 23.8333 12.9998 23.8333Z" fill="#4CAF50"/>
<path d="M23.6226 10.8783H22.75V10.8333H13V15.1667H19.1225C18.6952 16.3672 17.9256 17.4163 16.9087 18.1843L16.9103 18.1832L20.2632 21.0205C20.026 21.236 23.8333 18.4167 23.8333 13C23.8333 12.2736 23.7586 11.5646 23.6226 10.8783Z" fill="#1976D2"/>
</svg>
